<?xml version="1.0" encoding="UTF-8"?>
<!DOCTYPE svg PUBLIC "-//W3C//DTD SVG 1.1//EN" "http://www.w3.org/Graphics/SVG/1.1/DTD/svg11.dtd">
<!-- Creator: CorelDRAW Home & Student X6 -->
<svg xmlns="http://www.w3.org/2000/svg" xml:space="preserve" width="297mm" height="210mm" version="1.1" style="shape-rendering:geometricPrecision; text-rendering:geometricPrecision; image-rendering:optimizeQuality; fill-rule:evenodd; clip-rule:evenodd"
viewBox="0 0 29700 21000"
 xmlns:xlink="http://www.w3.org/1999/xlink">
 <defs>
  <style type="text/css">
   <![CDATA[
    .str3 {stroke:#333333;stroke-width:7.62}
    .str1 {stroke:white;stroke-width:20}
    .str0 {stroke:white;stroke-width:100}
    .str2 {stroke:black;stroke-width:200}
    .str4 {stroke:black;stroke-width:500}
    .fil2 {fill:none}
    .fil0 {fill:black}
    .fil1 {fill:white}
   ]]>
  </style>
 </defs>
 <g id="Warstwa_x0020_1">
  <metadata id="CorelCorpID_0Corel-Layer"/>
  <path class="fil0 str0" d="M10711 9104c-24,-54 -81,-83 -140,-71 -58,12 -99,63 -99,122l0 1668c0,33 -13,65 -37,88l-448 448c-49,49 -49,128 0,177l73 73c24,24 37,55 37,88 0,33 -13,65 -37,88l-749 749c-47,47 -129,47 -177,0l-73 -73c-49,-49 -128,-49 -177,0l-73 73c-47,47 -129,47 -177,0 -24,-24 -37,-55 -37,-88 0,-33 13,-65 37,-88l73 -73c49,-49 49,-128 0,-177l-73 -73c-24,-24 -37,-55 -37,-88 0,-33 13,-65 37,-88l749 -749c47,-47 129,-47 177,0l73 73c49,49 128,49 177,0l375 -375c23,-23 37,-55 37,-88l0 -3269c0,-69 -56,-125 -125,-125 -69,0 -125,56 -125,125l0 643c-548,-491 -1260,-768 -1998,-768 -1653,0 -2997,1345 -2997,2997 0,1653 1345,2997 2997,2997 1653,0 2997,-1345 2997,-2997 0,-421 -88,-831 -261,-1219zm-4241 -155c-32,0 -64,-12 -88,-36 -49,-49 -49,-128 0,-177 425,-426 990,-661 1592,-661 69,0 125,56 125,125 0,69 -56,125 -125,125 -535,0 -1038,209 -1415,588 -24,25 -57,37 -89,37zm255 1374c0,-689 560,-1249 1249,-1249 689,0 1249,560 1249,1249 0,689 -560,1249 -1249,1249 -689,0 -1249,-560 -1249,-1249z"/>
  <path class="fil1" d="M6390 8710c-55,61 -82,92 -82,92 -2,15 -2,28 0,37 100,-67 150,-100 150,-100 -45,-19 -68,-29 -68,-29z"/>
  <path class="fil2 str1" d="M9743 11185c12,-3 18,-5 18,-5"/>
  <path class="fil2 str1" d="M9626 11130c6,5 8,8 8,8"/>
  <path class="fil2 str1" d="M9494 11044c5,0 9,1 13,3"/>
  <path class="fil1" d="M9169 12598c28,-30 42,-44 42,-44 0,0 -27,-8 -81,-25 0,0 -3,14 -10,43 16,12 32,20 50,26z"/>
  <path class="fil1 str0" d="M6559 8912c378,-379 880,-588 1415,-588 69,0 125,-56 125,-125 0,-69 -56,-125 -125,-125 -602,0 -1167,235 -1592,661 -49,49 -49,128 0,177 24,24 56,36 88,36 32,0 64,-12 89,-37z"/>
  <rect class="fil2 str2" x="4546" y="6895" width="6856" height="6856"/>
  <path class="fil2 str3" d="M11111 10323c0,-831 -323,-1587 -851,-2148l0 -730c0,-92 -75,-167 -167,-167l0 0c-92,0 -167,75 -167,167l0 398c0,8 0,17 1,25 -536,-427 -1215,-682 -1953,-682 -1733,0 -3137,1405 -3137,3137 0,1733 1405,3137 3137,3137 1733,0 3137,-1405 3137,-3137z"/>
  <path class="fil0" d="M4837 10323c0,-1733 1405,-3137 3137,-3137 738,0 1417,255 1953,682 -1,-8 -1,-17 -1,-25l0 -398c0,-92 75,-167 167,-167 92,0 167,75 167,167l0 730c528,561 851,1317 851,2148 0,1733 -1405,3137 -3137,3137 -1733,0 -3137,-1405 -3137,-3137zm6565 -3428l-6856 0 0 6856 6856 0 0 -6856z"/>
  <circle class="fil1 str4" cx="7974" cy="10323" r="1074"/>
  <circle class="fil2 str0" cx="7974" cy="10323" r="1135"/>
  <circle class="fil0 str0" cx="7974" cy="10323" r="250"/>
 </g>
</svg>
